<svg id="Lager_1" data-name="Lager 1" xmlns="http://www.w3.org/2000/svg" viewBox="0 0 520.36 182.28"><defs><style>.cls-1{fill:#ff5000;}.cls-2{fill:#706259;}</style></defs><title>briox logo rgb</title><path class="cls-1" d="M281.38,199.09l-28.55-21.92,28.55-21.92a2.35,2.35,0,0,0,0-3.73l-84.64-65a2.35,2.35,0,0,0-2.86,0l-84.63,65a2.35,2.35,0,0,0-.92,1.86V201a2.35,2.35,0,0,0,.92,1.86l84.63,65a2.35,2.35,0,0,0,2.86,0l84.64-65A2.35,2.35,0,0,0,281.38,199.09ZM249,174.2l-51.31-39.41V93.14l78.43,60.23Zm-53.66-35.29,49.8,38.25-49.8,38.25-49.8-38.25ZM193,93.14v41.65L141.65,174.2l-27.12-20.83Zm-79.93,65,24.76,19-24.76,19v-38ZM195.31,263l-80.78-62,27.12-20.83,52.23,40.11a2.35,2.35,0,0,0,2.86,0L249,180.13,276.09,201Z" transform="translate(-108.32 -86.03)"/><path class="cls-2" d="M521.41,151.36a37.22,37.22,0,0,0-.23,74.43c20.23,0.1,36.52-16.36,36.74-37.14a36.71,36.71,0,0,0-36.51-37.29m-42,37.19a41.73,41.73,0,1,1,42,41.76,41.9,41.9,0,0,1-42-41.76" transform="translate(-108.32 -86.03)"/><rect class="cls-2" x="355.01" y="61.82" width="4.81" height="80.84"/><polygon class="cls-2" points="520.36 142.67 488 100.97 518.38 61.82 512.67 61.82 485.08 97.21 457.62 61.82 451.63 61.82 482.15 100.97 449.64 142.67 455.63 142.67 485.08 104.72 514.65 142.67 520.36 142.67"/><path class="cls-2" d="M469.57,128.22a3.83,3.83,0,1,1-3.83-3.83,3.83,3.83,0,0,1,3.83,3.83" transform="translate(-108.32 -86.03)"/><path class="cls-2" d="M362.42,146.86a41.94,41.94,0,0,0-36.87,22.36V116.75h-4.81v71.81A41.73,41.73,0,1,0,362.42,146.86Zm0.13,78.94a37.22,37.22,0,0,1,.23-74.43,36.71,36.71,0,0,1,36.51,37.29C399.06,209.43,382.78,225.89,362.54,225.79Z" transform="translate(-108.32 -86.03)"/><path class="cls-2" d="M446.53,147.43a32.18,32.18,0,0,0-32.17,32.07v49.19h4.81V179.5a27.39,27.39,0,0,1,27.36-27.3h3.16v-4.77h-3.16Z" transform="translate(-108.32 -86.03)"/></svg>